#!OML:ASF X:\für Bonn\!DataBase\2005_08_11_Bastian_Final\c3d\Bastian.ASF
:FULLY-SPECIFIED
:DEGREES
185
root 22.8053 16.2128 -2.24032 357.396 -72.8091 37.227
lowerback 77.8039 -5.05785 12.7836
upperback 9.8378 2.29566 0.188027
thorax -8.69911 0.364019 -5.45357
lowerneck 2.07797 -8.73305 1.99913
upperneck -28.4396 -10.7035 8.88512
head -8.83913 -6.80805 3.62944
rclavicle 5.40694e-014 2.22639e-014
rhumerus 60.9539 -19.5724 -56.4327
rradius 16.1775
rwrist 8.04228
rhand -38.2652 -3.71164
rfingers 7.12502
rthumb -11.295 -33.3875
lclavicle 5.40694e-014 2.22639e-014
lhumerus -17.6334 -30.2942 88.8697
lradius 51.8116
lwrist 32.9305
lhand -12.8879 -15.3801
lfingers 7.12502
lthumb 13.2013 14.1819
rfemur -73.5113 -5.15819 13.2337
rtibia 65.9352
rfoot -16.4217 -8.69134
rtoes 1.40446
lfemur -69.5704 -6.78251 -29.0301
ltibia 48.9867
lfoot -3.68673 -5.32885
ltoes -17.1376
186
root 22.7857 16.2158 -2.23751 357.731 -72.7387 36.9456
lowerback 77.9081 -5.03951 12.7458
upperback 9.79848 2.30725 0.173051
thorax -8.73721 0.367926 -5.45929
lowerneck 2.13886 -8.74113 1.98612
upperneck -28.4361 -10.701 8.92556
head -8.84546 -6.80853 3.64804
rclavicle -7.95139e-014 -1.43125e-014
rhumerus 60.8205 -19.5941 -56.4757
rradius 16.1774
rwrist 8.17257
rhand -38.7895 -3.82239
rfingers 7.12502
rthumb -11.8007 -33.4699
lclavicle -7.95139e-014 -1.43125e-014
lhumerus -17.6676 -30.2534 88.8227
lradius 51.8363
lwrist 32.9383
lhand -12.9315 -15.3989
lfingers 7.12502
lthumb 13.1592 14.1658
rfemur -73.4811 -5.18566 13.3001
rtibia 65.9496
rfoot -16.5043 -8.77024
rtoes 1.3551
lfemur -69.5575 -6.78543 -29.0343
ltibia 48.9896
lfoot -3.73933 -5.42484
ltoes -17.4512
187
root 22.7673 16.2179 -2.23373 358.007 -72.6817 36.762
lowerback 77.9814 -5.00036 12.6769
upperback 9.74902 2.31425 0.149421
thorax -8.7952 0.369978 -5.46404
lowerneck 2.2025 -8.73725 1.98837
upperneck -28.4036 -10.6837 8.94677
head -8.84496 -6.79951 3.65503
rclavicle 4.13472e-014 3.18055e-014
rhumerus 60.6104 -19.5526 -56.3801
rradius 16.2076
rwrist 8.15935
rhand -39.3044 -3.91762
rfingers 7.12502
rthumb -12.2971 -33.536
lclavicle 4.13472e-014 3.18055e-014
lhumerus -17.7485 -30.1637 88.7692
lradius 51.8658
lwrist 32.8855
lhand -12.9052 -15.3758
lfingers 7.12502
lthumb 13.1845 14.1873
rfemur -73.4927 -5.2132 13.3341
rtibia 65.9587
rfoot -16.5772 -8.8168
rtoes 1.3453
lfemur -69.5767 -6.79264 -29.0673
ltibia 48.9794
lfoot -3.80596 -5.49318
ltoes -17.8672
188
root 22.7487 16.2213 -2.2294 358.29 -72.6017 36.5357
lowerback 78.0731 -4.99249 12.6413
upperback 9.7033 2.31665 0.129742
thorax -8.84254 0.370407 -5.47286
lowerneck 2.23381 -8.74216 2.04344
upperneck -28.3715 -10.6877 8.92307
head -8.84483 -6.80196 3.6388
rclavicle 2.22639e-014 -1.11319e-014
rhumerus 60.4348 -19.5656 -56.3877
rradius 16.2209
rwrist 8.30037
rhand -39.8354 -3.96759
rfingers 7.12502
rthumb -12.8091 -33.5546
lclavicle 2.22639e-014 -1.11319e-014
lhumerus -17.813 -30.158 88.7256
lradius 51.9111
lwrist 32.8804
lhand -12.9529 -15.3992
lfingers 7.12502
lthumb 13.1386 14.1669
rfemur -73.4591 -5.27189 13.3826
rtibia 65.9565
rfoot -16.6621 -8.84788
rtoes 1.37485
lfemur -69.5408 -6.82005 -29.0898
ltibia 48.9567
lfoot -3.87783 -5.56897
ltoes -18.2826
189
root 22.7303 16.2248 -2.22656 358.607 -72.5345 36.2754
lowerback 78.1447 -4.98042 12.6219
upperback 9.66716 2.32733 0.0946513
thorax -8.87788 0.376947 -5.51039
lowerneck 2.31712 -8.75459 2.10368
upperneck -28.3921 -10.6859 8.94292
head -8.87067 -6.8086 3.64277
rclavicle 1.90833e-014 1.74931e-014
rhumerus 60.2586 -19.6187 -56.4177
rradius 16.2234
rwrist 8.48634
rhand -40.3302 -4.1217
rfingers 7.12502
rthumb -13.2861 -33.6782
lclavicle 1.90833e-014 1.74931e-014
lhumerus -17.8704 -30.1497 88.6618
lradius 51.9642
lwrist 32.8501
lhand -13.0127 -15.3713
lfingers 7.12502
lthumb 13.081 14.1985
rfemur -73.4125 -5.28165 13.4251
rtibia 65.9426
rfoot -16.7336 -8.92068
rtoes 1.35949
lfemur -69.5077 -6.82127 -29.1028
ltibia 48.9196
lfoot -3.92419 -5.6363
ltoes -18.7726
190
root 22.713 16.2292 -2.22263 358.82 -72.4665 36.1214
lowerback 78.2004 -4.94615 12.5639
upperback 9.64657 2.3304 0.0793872
thorax -8.90254 0.379285 -5.50787
lowerneck 2.31206 -8.74737 2.20412
upperneck -28.345 -10.68 8.87882
head -8.86499 -6.80604 3.60237
rclavicle -2.8625e-014 3.02153e-014
rhumerus 60.1825 -19.7004 -56.5748
rradius 16.1965
rwrist 8.8267
rhand -40.7743 -4.22991
rfingers 7.12502
rthumb -13.7141 -33.758
lclavicle -2.8625e-014 3.02153e-014
lhumerus -17.8725 -30.126 88.5998
lradius 51.9759
lwrist 32.8397
lhand -13.0126 -15.4407
lfingers 7.12502
lthumb 13.081 14.1291
rfemur -73.3861 -5.34254 13.4726
rtibia 65.9259
rfoot -16.7896 -8.9365
rtoes 1.33523
lfemur -69.4642 -6.83441 -29.1401
ltibia 48.8687
lfoot -3.97413 -5.71844
ltoes -19.1084
191
root 22.6956 16.2347 -2.21919 359.095 -72.374 35.8941
lowerback 78.2643 -4.94582 12.5363
upperback 9.62002 2.32472 0.0639784
thorax -8.92993 0.377855 -5.51197
lowerneck 2.35811 -8.74515 2.29993
upperneck -28.3479 -10.6765 8.82351
head -8.88537 -6.80714 3.57252
rclavicle 1.04958e-013 -4.13472e-014
rhumerus 60.1635 -19.8319 -56.85
rradius 16.1242
rwrist 9.27726
rhand -41.2359 -4.24533
rfingers 7.12502
rthumb -14.159 -33.7428
lclavicle 1.04958e-013 -4.13472e-014
lhumerus -17.8933 -30.084 88.5594
lradius 52.0043
lwrist 32.7745
lhand -13.0759 -15.4283
lfingers 7.12502
lthumb 13.0201 14.1454
rfemur -73.3255 -5.40302 13.5205
rtibia 65.898
rfoot -16.8681 -8.97801
rtoes 1.35675
lfemur -69.4039 -6.87788 -29.1415
ltibia 48.8054
lfoot -4.04092 -5.80174
ltoes -19.5767
192
root 22.6784 16.24 -2.21539 359.416 -72.307 35.6634
lowerback 78.2722 -4.92391 12.5114
upperback 9.60837 2.33002 0.0339555
thorax -8.94495 0.384042 -5.54182
lowerneck 2.39903 -8.73793 2.44477
upperneck -28.3816 -10.6603 8.76516
head -8.9201 -6.80814 3.53526
rclavicle 1.90833e-014 1.74931e-014
rhumerus 60.1451 -19.9897 -57.148
rradius 16.0551
rwrist 9.77439
rhand -41.6785 -4.34576
rfingers 7.12502
rthumb -14.5854 -33.8129
lclavicle 1.90833e-014 1.74931e-014
lhumerus -17.8786 -30.101 88.4769
lradius 52.0185
lwrist 32.7421
lhand -13.1126 -15.5107
lfingers 7.12502
lthumb 12.9847 14.0652
rfemur -73.3219 -5.44392 13.5738
rtibia 65.8662
rfoot -16.9156 -9.01559
rtoes 1.36975
lfemur -69.3884 -6.88084 -29.1584
ltibia 48.7276
lfoot -4.07032 -5.87786
ltoes -19.9545
193
root 22.6621 16.2453 -2.21175 359.675 -72.2213 35.444
lowerback 78.3229 -4.92084 12.4885
upperback 9.59423 2.32492 0.0130045
thorax -8.95836 0.384607 -5.55504
lowerneck 2.3811 -8.73079 2.55302
upperneck -28.3524 -10.6528 8.70775
head -8.91855 -6.80745 3.49629
rclavicle 1.17681e-013 -3.81667e-014
rhumerus 60.0889 -20.0858 -57.3339
rradius 16.0133
rwrist 10.1354
rhand -42.1456 -4.48666
rfingers 7.12502
rthumb -15.0355 -33.9207
lclavicle 1.17681e-013 -3.81667e-014
lhumerus -17.8374 -30.1155 88.4101
lradius 52.0113
lwrist 32.6752
lhand -13.1856 -15.5225
lfingers 7.12502
lthumb 12.9143 14.0579
rfemur -73.2557 -5.52958 13.6472
rtibia 65.8223
rfoot -16.98 -9.02295
rtoes 1.47165
lfemur -69.3175 -6.92842 -29.1417
ltibia 48.6374
lfoot -4.06633 -5.93038
ltoes -20.0049
194
root 22.6452 16.2515 -2.20833 359.923 -72.1392 35.2481
lowerback 78.3464 -4.91958 12.4773
upperback 9.58898 2.32002 -0.0183483
thorax -8.96274 0.387611 -5.58611
lowerneck 2.39556 -8.72424 2.67065
upperneck -28.3545 -10.6421 8.65086
head -8.93486 -6.80717 3.46005
rclavicle -9.22361e-014 1.59028e-015
rhumerus 60.1631 -20.3395 -57.816
rradius 15.902
rwrist 10.7848
rhand -42.536 -4.4938
rfingers 7.12502
rthumb -15.4114 -33.8993
lclavicle -9.22361e-014 1.59028e-015
lhumerus -17.7762 -30.1028 88.3341
lradius 52.0103
lwrist 32.6124
lhand -13.2007 -15.5945
lfingers 7.12502
lthumb 12.8997 13.9868
rfemur -73.1991 -5.59909 13.703
rtibia 65.7797
rfoot -17.0313 -9.04576
rtoes 1.44008
lfemur -69.2461 -6.97455 -29.1201
ltibia 48.537
lfoot -4.09948 -5.98227
ltoes -20.1254
